<svg width="19" height="16" viewBox="0 0 19 16" fill="none" xmlns="http://www.w3.org/2000/svg">
<g filter="url(#filter0_d_96_50)">
<path d="M9.25 11C8.56667 11 7.92083 10.8687 7.3125 10.6062C6.70417 10.3437 6.17292 9.98542 5.71875 9.53125C5.26458 9.07708 4.90625 8.54583 4.64375 7.9375C4.38125 7.32917 4.25 6.68333 4.25 6C4.25 5.30833 4.38125 4.66042 4.64375 4.05625C4.90625 3.45208 5.26458 2.92292 5.71875 2.46875C6.17292 2.01458 6.70417 1.65625 7.3125 1.39375C7.92083 1.13125 8.56667 1 9.25 1C9.94167 1 10.5896 1.13125 11.1937 1.39375C11.7979 1.65625 12.3271 2.01458 12.7812 2.46875C13.2354 2.92292 13.5938 3.45208 13.8562 4.05625C14.1187 4.66042 14.25 5.30833 14.25 6C14.25 6.68333 14.1187 7.32917 13.8562 7.9375C13.5938 8.54583 13.2354 9.07708 12.7812 9.53125C12.3271 9.98542 11.7979 10.3437 11.1937 10.6062C10.5896 10.8687 9.94167 11 9.25 11ZM9.25 9.975C9.46667 9.675 9.65417 9.3625 9.8125 9.0375C9.97083 8.7125 10.1 8.36667 10.2 8H8.3C8.4 8.36667 8.52917 8.7125 8.6875 9.0375C8.84583 9.3625 9.03333 9.675 9.25 9.975ZM7.95 9.775C7.8 9.5 7.66875 9.21458 7.55625 8.91875C7.44375 8.62292 7.35 8.31667 7.275 8H5.8C6.04167 8.41667 6.34375 8.77917 6.70625 9.0875C7.06875 9.39583 7.48333 9.625 7.95 9.775ZM10.55 9.775C11.0167 9.625 11.4313 9.39583 11.7938 9.0875C12.1563 8.77917 12.4583 8.41667 12.7 8H11.225C11.15 8.31667 11.0563 8.62292 10.9437 8.91875C10.8312 9.21458 10.7 9.5 10.55 9.775ZM5.375 7H7.075C7.05 6.83333 7.03125 6.66875 7.01875 6.50625C7.00625 6.34375 7 6.175 7 6C7 5.825 7.00625 5.65625 7.01875 5.49375C7.03125 5.33125 7.05 5.16667 7.075 5H5.375C5.33333 5.16667 5.30208 5.33125 5.28125 5.49375C5.26042 5.65625 5.25 5.825 5.25 6C5.25 6.175 5.26042 6.34375 5.28125 6.50625C5.30208 6.66875 5.33333 6.83333 5.375 7ZM8.075 7H10.425C10.45 6.83333 10.4688 6.66875 10.4813 6.50625C10.4938 6.34375 10.5 6.175 10.5 6C10.5 5.825 10.4938 5.65625 10.4813 5.49375C10.4688 5.33125 10.45 5.16667 10.425 5H8.075C8.05 5.16667 8.03125 5.33125 8.01875 5.49375C8.00625 5.65625 8 5.825 8 6C8 6.175 8.00625 6.34375 8.01875 6.50625C8.03125 6.66875 8.05 6.83333 8.075 7ZM11.425 7H13.125C13.1667 6.83333 13.1979 6.66875 13.2188 6.50625C13.2396 6.34375 13.25 6.175 13.25 6C13.25 5.825 13.2396 5.65625 13.2188 5.49375C13.1979 5.33125 13.1667 5.16667 13.125 5H11.425C11.45 5.16667 11.4688 5.33125 11.4813 5.49375C11.4938 5.65625 11.5 5.825 11.5 6C11.5 6.175 11.4938 6.34375 11.4813 6.50625C11.4688 6.66875 11.45 6.83333 11.425 7ZM11.225 4H12.7C12.4583 3.58333 12.1563 3.22083 11.7938 2.9125C11.4313 2.60417 11.0167 2.375 10.55 2.225C10.7 2.5 10.8312 2.78542 10.9437 3.08125C11.0563 3.37708 11.15 3.68333 11.225 4ZM8.3 4H10.2C10.1 3.63333 9.97083 3.2875 9.8125 2.9625C9.65417 2.6375 9.46667 2.325 9.25 2.025C9.03333 2.325 8.84583 2.6375 8.6875 2.9625C8.52917 3.2875 8.4 3.63333 8.3 4ZM5.8 4H7.275C7.35 3.68333 7.44375 3.37708 7.55625 3.08125C7.66875 2.78542 7.8 2.5 7.95 2.225C7.48333 2.375 7.06875 2.60417 6.70625 2.9125C6.34375 3.22083 6.04167 3.58333 5.8 4Z" fill="white"/>
</g>
<defs>
<filter id="filter0_d_96_50" x="-0.75" y="0" width="20" height="20" filterUnits="userSpaceOnUse" color-interpolation-filters="sRGB">
<feFlood flood-opacity="0" result="BackgroundImageFix"/>
<feColorMatrix in="SourceAlpha" type="matrix" values="0 0 0 0 0 0 0 0 0 0 0 0 0 0 0 0 0 0 127 0" result="hardAlpha"/>
<feOffset dy="4"/>
<feGaussianBlur stdDeviation="2"/>
<feComposite in2="hardAlpha" operator="out"/>
<feColorMatrix type="matrix" values="0 0 0 0 0 0 0 0 0 0 0 0 0 0 0 0 0 0 0.25 0"/>
<feBlend mode="normal" in2="BackgroundImageFix" result="effect1_dropShadow_96_50"/>
<feBlend mode="normal" in="SourceGraphic" in2="effect1_dropShadow_96_50" result="shape"/>
</filter>
</defs>
</svg>
