<svg width="17" height="16" viewBox="0 0 17 16" fill="none" xmlns="http://www.w3.org/2000/svg">
<path d="M8.49992 14.6667C8.34436 14.6667 8.21103 14.6222 8.09992 14.5333C7.98881 14.4444 7.90547 14.3278 7.84992 14.1833C7.63881 13.5611 7.37214 12.9778 7.04992 12.4333C6.73881 11.8889 6.29992 11.25 5.73325 10.5167C5.16659 9.78333 4.70547 9.08333 4.34992 8.41667C4.00547 7.75 3.83325 6.94444 3.83325 6C3.83325 4.7 4.28325 3.6 5.18325 2.7C6.09436 1.78889 7.19992 1.33333 8.49992 1.33333C9.79992 1.33333 10.8999 1.78889 11.7999 2.7C12.711 3.6 13.1666 4.7 13.1666 6C13.1666 7.01111 12.9721 7.85555 12.5833 8.53333C12.2055 9.2 11.7666 9.86111 11.2666 10.5167C10.6666 11.3167 10.211 11.9833 9.89992 12.5167C9.59992 13.0389 9.34992 13.5944 9.14992 14.1833C9.09436 14.3389 9.00547 14.4611 8.88325 14.55C8.77214 14.6278 8.64436 14.6667 8.49992 14.6667ZM8.49992 7.66667C8.96659 7.66667 9.36103 7.50555 9.68325 7.18333C10.0055 6.86111 10.1666 6.46667 10.1666 6C10.1666 5.53333 10.0055 5.13889 9.68325 4.81667C9.36103 4.49444 8.96659 4.33333 8.49992 4.33333C8.03325 4.33333 7.63881 4.49444 7.31659 4.81667C6.99436 5.13889 6.83325 5.53333 6.83325 6C6.83325 6.46667 6.99436 6.86111 7.31659 7.18333C7.63881 7.50555 8.03325 7.66667 8.49992 7.66667Z" fill="#020C18"/>
</svg>
