<svg width="13" height="12" viewBox="0 0 13 12" fill="none" xmlns="http://www.w3.org/2000/svg">
<path d="M10.55 10.5L7.4 7.35C7.15 7.55 6.8625 7.70833 6.5375 7.825C6.2125 7.94167 5.86667 8 5.5 8C4.59167 8 3.82292 7.68542 3.19375 7.05625C2.56458 6.42708 2.25 5.65833 2.25 4.75C2.25 3.84167 2.56458 3.07292 3.19375 2.44375C3.82292 1.81458 4.59167 1.5 5.5 1.5C6.40833 1.5 7.17708 1.81458 7.80625 2.44375C8.43542 3.07292 8.75 3.84167 8.75 4.75C8.75 5.11667 8.69167 5.4625 8.575 5.7875C8.45833 6.1125 8.3 6.4 8.1 6.65L11.25 9.8L10.55 10.5ZM5.5 7C6.125 7 6.65625 6.78125 7.09375 6.34375C7.53125 5.90625 7.75 5.375 7.75 4.75C7.75 4.125 7.53125 3.59375 7.09375 3.15625C6.65625 2.71875 6.125 2.5 5.5 2.5C4.875 2.5 4.34375 2.71875 3.90625 3.15625C3.46875 3.59375 3.25 4.125 3.25 4.75C3.25 5.375 3.46875 5.90625 3.90625 6.34375C4.34375 6.78125 4.875 7 5.5 7Z" fill="white"/>
</svg>
